<svg xmlns="http://www.w3.org/2000/svg" width="14" height="24.289" viewBox="0 0 17.534 24.289">
  <g id="address" transform="translate(-0.145)">
    <path id="Path_247" data-name="Path 247" d="M80.567,69.928V74.75H82.32V71.681a.438.438,0,0,1,.438-.438h2.63a.438.438,0,0,1,.438.438V74.75H87.58V69.928a.438.438,0,0,1,.438-.438h.465L84.074,66.1l-4.41,3.392h.465a.438.438,0,0,1,.438.438Zm0,0" transform="translate(-75.162 -62.476)" fill="#fff"/>
    <path id="Path_248" data-name="Path 248" d="M144.145,176H145.9v2.63h-1.753Zm0,0" transform="translate(-136.11 -166.356)" fill="#fff"/>
    <path id="Path_249" data-name="Path 249" d="M8.912,24.289c1.649-2.059,8.767-11.2,8.767-15.522a8.767,8.767,0,0,0-17.534,0c0,4.327,7.117,13.463,8.767,15.522ZM2.946,7.106l5.7-4.383a.438.438,0,0,1,.535,0l5.7,4.383a.438.438,0,0,1-.267.784H13.3v4.822a.438.438,0,0,1-.438.438H4.967a.438.438,0,0,1-.438-.438V7.89H3.213A.438.438,0,0,1,2.946,7.1Zm0,0" fill="#fff"/>
  </g>
</svg>
