<svg xmlns="http://www.w3.org/2000/svg" width="20" height="24" viewBox="0 0 20 24">
  <g id="bell" transform="translate(0 0)">
    <path id="Path_250" data-name="Path 250" d="M19.379,16.914A6.7,6.7,0,0,1,17,11.789V9a7.006,7.006,0,0,0-6-6.92V1A1,1,0,0,0,9,1v1.08A7,7,0,0,0,3,9v2.788A6.705,6.705,0,0,1,.612,16.922,1.75,1.75,0,0,0,1.75,20h16.5a1.75,1.75,0,0,0,1.129-3.087Zm0,0" fill="#2058f1"/>
    <path id="Path_251" data-name="Path 251" d="M138.627,451a3.756,3.756,0,0,0,3.674-3h-7.348a3.756,3.756,0,0,0,3.674,3Zm0,0" transform="translate(-128.627 -426.999)" fill="#2058f1"/>
  </g>
</svg>
