<svg xmlns="http://www.w3.org/2000/svg" width="18" height="24" viewBox="0 0 25.263 24">
  <path id="comment" d="M12.632,1.5C5.666,1.5,0,6.6,0,12.868a10.509,10.509,0,0,0,2.008,6.149c-.249,2.752-.916,4.8-1.884,5.764a.421.421,0,0,0,.3.719.4.4,0,0,0,.059,0,22.494,22.494,0,0,0,7-2.248,13.706,13.706,0,0,0,5.155.989c6.965,0,12.632-5.1,12.632-11.368S19.6,1.5,12.632,1.5ZM6.737,14.553a1.684,1.684,0,1,1,1.684-1.684A1.686,1.686,0,0,1,6.737,14.553Zm5.895,0a1.684,1.684,0,1,1,1.684-1.684A1.686,1.686,0,0,1,12.632,14.553Zm5.895,0a1.684,1.684,0,1,1,1.684-1.684A1.686,1.686,0,0,1,18.526,14.553Z" transform="translate(0 -1.5)" fill="#fff"/>
</svg>
