<svg xmlns="http://www.w3.org/2000/svg" width="23.898" height="23.898" viewBox="0 0 23.898 23.898">
  <g id="cube" opacity="0.5">
    <g id="Group_948" data-name="Group 948" transform="translate(0 8.431)">
      <g id="Group_947" data-name="Group 947">
        <path id="Path_206" data-name="Path 206" d="M22.45,189.741a.68.68,0,0,0-.69-.7H19.652a.717.717,0,0,0,0,1.433h.66a10.471,10.471,0,0,1-18.521-8.958A.717.717,0,0,0,.4,181.159a11.861,11.861,0,0,0,11.546,14.929,11.928,11.928,0,0,0,9.064-4.271v.035a.717.717,0,0,0,1.433,0l0-2.013A.676.676,0,0,0,22.45,189.741Z" transform="translate(0 -180.62)" fill="#100e1d"/>
      </g>
    </g>
    <g id="Group_950" data-name="Group 950" transform="translate(1.445)">
      <g id="Group_949" data-name="Group 949">
        <path id="Path_207" data-name="Path 207" d="M41.461,0A11.942,11.942,0,0,0,32.39,4.271V4.246a.717.717,0,1,0-1.433,0v2.11a.687.687,0,0,0,.8.686h2.008a.686.686,0,0,0,.717-.717.717.717,0,0,0-.717-.717H33.1a10.5,10.5,0,0,1,18.879,6.341,10.569,10.569,0,0,1-.358,2.623.717.717,0,1,0,1.388.357,11.993,11.993,0,0,0,.4-2.98A11.983,11.983,0,0,0,41.461,0Z" transform="translate(-30.957)" fill="#100e1d"/>
      </g>
    </g>
    <g id="Group_952" data-name="Group 952" transform="translate(6.37 4.946)">
      <g id="Group_951" data-name="Group 951">
        <path id="Path_208" data-name="Path 208" d="M142.37,106.051a.7.7,0,0,0-.651,0l-5.254,2.758,5.58,3.348,5.58-3.348Z" transform="translate(-136.465 -105.971)" fill="#100e1d"/>
      </g>
    </g>
    <g id="Group_954" data-name="Group 954" transform="translate(12.65 8.984)">
      <g id="Group_953" data-name="Group 953">
        <path id="Path_209" data-name="Path 209" d="M271,195.843v6.294l5.273-3.3a.7.7,0,0,0,.329-.594v-5.766Z" transform="translate(-271.004 -192.482)" fill="#100e1d"/>
      </g>
    </g>
    <g id="Group_956" data-name="Group 956" transform="translate(5.647 8.984)">
      <g id="Group_955" data-name="Group 955">
        <path id="Path_210" data-name="Path 210" d="M120.975,192.482v5.766a.7.7,0,0,0,.329.594l5.273,3.3v-6.294Z" transform="translate(-120.975 -192.482)" fill="#100e1d"/>
      </g>
    </g>
  </g>
</svg>
