<svg xmlns="http://www.w3.org/2000/svg" width="37.246" height="48.282" viewBox="0 0 37.246 48.282">
  <g id="document" transform="translate(-41.796)">
    <g id="Group_1001" data-name="Group 1001" transform="translate(57.66 23.313)">
      <g id="Group_1000" data-name="Group 1000" transform="translate(0)">
        <path id="Path_220" data-name="Path 220" d="M161.959,178.588v2.483l9.656-2v-2.483Z" transform="translate(-161.959 -176.588)" fill="#fff"/>
      </g>
    </g>
    <g id="Group_1003" data-name="Group 1003" transform="translate(51.866 36.419)">
      <g id="Group_1002" data-name="Group 1002" transform="translate(0)">
        <circle id="Ellipse_56" data-name="Ellipse 56" cx="1.586" cy="1.586" r="1.586" fill="#fff"/>
      </g>
    </g>
    <g id="Group_1005" data-name="Group 1005" transform="translate(67.306 2.069)">
      <g id="Group_1004" data-name="Group 1004" transform="translate(0)">
        <path id="Path_221" data-name="Path 221" d="M235.032,15.673V24.64a.617.617,0,0,0,.552.69h9.174Z" transform="translate(-235.021 -15.673)" fill="#fff"/>
      </g>
    </g>
    <g id="Group_1007" data-name="Group 1007" transform="translate(64.42 34.005)">
      <g id="Group_1006" data-name="Group 1006" transform="translate(0)">
        <circle id="Ellipse_57" data-name="Ellipse 57" cx="1.586" cy="1.586" r="1.586" fill="#fff"/>
      </g>
    </g>
    <g id="Group_1009" data-name="Group 1009" transform="translate(41.796)">
      <g id="Group_1008" data-name="Group 1008" transform="translate(0)">
        <path id="Path_222" data-name="Path 222" d="M68.006,14.485a3.415,3.415,0,0,1-3.449-3.449V0H45.934A4.151,4.151,0,0,0,41.8,4.138V44.144a4.151,4.151,0,0,0,4.138,4.138H74.9a4.151,4.151,0,0,0,4.138-4.138V14.485ZM66.075,39.867a4.4,4.4,0,0,1-4.345-4.276,4.3,4.3,0,0,1,4.207-4.345c.552,0,1.448.138,1.448.276v-2.9l-9.725,2V38a4.276,4.276,0,1,1-4.276-4.276A3.713,3.713,0,0,1,54.9,34V24.21A1.409,1.409,0,0,1,56,22.83l12.622-2.552a1.155,1.155,0,0,1,1.035.276,1.184,1.184,0,0,1,.414,1.035l.276,13.588v.207h0A4.387,4.387,0,0,1,66.075,39.867Z" transform="translate(-41.796)" fill="#fff"/>
      </g>
    </g>
  </g>
</svg>
