<svg xmlns="http://www.w3.org/2000/svg" width="14" height="14" viewBox="0 0 512 512" fill="#fff">
  <path id="drag" d="M354,60A60.066,60.066,0,0,0,294,0H60A60.066,60.066,0,0,0,0,60V294a60.066,60.066,0,0,0,60,60h96v40h40V354h98a60.066,60.066,0,0,0,60-60V198h39V158H354ZM314,294a20.024,20.024,0,0,1-20,20H60a20.024,20.024,0,0,1-20-20V60A20.024,20.024,0,0,1,60,40H294a20.024,20.024,0,0,1,20,20ZM472,432h40v40a40,40,0,0,1-40,40H433V472h39ZM273,472h40v40H273Zm80,0h40v40H353ZM512,198v40H472V198H433V158h39A40,40,0,0,1,512,198Zm-40,78h40v40H472Zm0,78h40v40H472ZM196,472h39v40H196a40,40,0,0,1-40-40V432h40Zm37-318Z"/>
</svg>
