<svg xmlns="http://www.w3.org/2000/svg" xmlns:xlink="http://www.w3.org/1999/xlink" width="58" height="58" viewBox="0 0 58 58">
  <defs>
    <filter id="Ellipse_55" x="0" y="0" width="58" height="58" filterUnits="userSpaceOnUse">
      <feOffset dy="3" input="SourceAlpha"/>
      <feGaussianBlur stdDeviation="3" result="blur"/>
      <feFlood flood-opacity="0.161"/>
      <feComposite operator="in" in2="blur"/>
      <feComposite in="SourceGraphic"/>
    </filter>
  </defs>
  <g id="Group_993" data-name="Group 993" transform="translate(-671 -513)">
    <g transform="matrix(1, 0, 0, 1, 671, 513)" filter="url(#Ellipse_55)">
      <circle id="Ellipse_55-2" data-name="Ellipse 55" cx="20" cy="20" r="20" transform="translate(9 6)" fill="#2058f1"/>
    </g>
    <g id="play" transform="translate(633.874 531)">
      <g id="Group_989" data-name="Group 989" transform="translate(61.52)">
        <path id="Path_219" data-name="Path 219" d="M72.651,6.514,63.763.43A2.169,2.169,0,0,0,62.6,0c-.665,0-1.076.533-1.076,1.426v13.15c0,.892.411,1.424,1.074,1.424a2.151,2.151,0,0,0,1.163-.431l8.892-6.084A1.824,1.824,0,0,0,73.536,8,1.818,1.818,0,0,0,72.651,6.514Z" transform="translate(-61.52 0)" fill="#fff"/>
      </g>
    </g>
  </g>
</svg>
