<svg xmlns="http://www.w3.org/2000/svg" width="60" height="60" viewBox="0 0 60 60">
  <g id="Group_1103" data-name="Group 1103" transform="translate(-529 -143)">
    <g id="Ellipse_44" data-name="Ellipse 44" transform="translate(529 143)" fill="none" stroke="#2058f1" stroke-width="2">
      <circle cx="30" cy="30" r="30" stroke="none"/>
      <circle cx="30" cy="30" r="29" fill="none"/>
    </g>
    <g id="handcuff" transform="translate(541 155)">
      <g id="Group_931" data-name="Group 931" transform="translate(0 14.858)">
        <g id="Group_930" data-name="Group 930" transform="translate(0)">
          <path id="Path_203" data-name="Path 203" d="M14.927,212.854l0-.6a3.228,3.228,0,0,0-3.185-3.252l-1.08,0v3.238a1.066,1.066,0,0,1-2.133-.009v-3.224l-1.052,0a3.216,3.216,0,0,0-3.213,3.21l0,.6a9.7,9.7,0,0,0,5.256,17.734,2.133,2.133,0,0,0,.018-4.266,5.422,5.422,0,0,1,.046-10.843,5.4,5.4,0,0,1,5.309,5.426,5.451,5.451,0,0,1-2.387,4.513,4.185,4.185,0,0,1,1.288,3.056,4.523,4.523,0,0,1-.176,1.215,9.818,9.818,0,0,0,5.54-8.765A9.717,9.717,0,0,0,14.927,212.854Z" transform="translate(0 -209.001)" fill="#fff"/>
        </g>
      </g>
      <g id="Group_933" data-name="Group 933" transform="translate(8.531 8.531)">
        <g id="Group_932" data-name="Group 932">
          <path id="Path_204" data-name="Path 204" d="M125.375,120a5.334,5.334,0,0,0-5.374,5.29v1.034l2.133,0V125.3a3.2,3.2,0,0,1,3.232-3.167H126.4V120Z" transform="translate(-120.001 -120)" fill="#fff"/>
        </g>
      </g>
      <g id="Group_935" data-name="Group 935" transform="translate(14.929 0)">
        <g id="Group_934" data-name="Group 934" transform="translate(0 0)">
          <path id="Path_205" data-name="Path 205" d="M229.347,7.534a2.139,2.139,0,0,0-2.142,2.123,5.368,5.368,0,1,1-.9-2.969A4.185,4.185,0,0,1,229.357,5.4a4.521,4.521,0,0,1,1.215.176,9.612,9.612,0,0,0-16.714-1.309l-.6,0a3.231,3.231,0,0,0-3.255,3.185l0,1.08h3.241a1.066,1.066,0,0,1-.009,2.133H210V11.8a3.147,3.147,0,0,0,3.213,3.128l.6,0a9.636,9.636,0,0,0,17.66-5.256A2.139,2.139,0,0,0,229.347,7.534Z" transform="translate(-210.001 0)" fill="#fff"/>
        </g>
      </g>
    </g>
  </g>
</svg>
