<svg xmlns="http://www.w3.org/2000/svg" width="14" height="23.969" viewBox="0 0 17.979 23.969">
  <g id="home-run" transform="translate(-24)">
    <path id="Path_256" data-name="Path 256" d="M32.99,0A9,9,0,0,0,24,8.99c0,6.334,7.945,14.352,8.283,14.69a1.009,1.009,0,0,0,1.413,0c.338-.338,8.283-8.356,8.283-14.69A9,9,0,0,0,32.99,0Zm0,14.983A5.993,5.993,0,1,1,38.983,8.99,5.993,5.993,0,0,1,32.99,14.983Z" fill="#fff"/>
    <path id="Path_257" data-name="Path 257" d="M70.649,46.05l-4-2a.5.5,0,0,0-.447,0l-4,2,.447.893,1.275-.638v3.187a.5.5,0,0,0,.5.5h4a.5.5,0,0,0,.5-.5V46.306l1.275.638Z" transform="translate(-33.44 -38.506)" fill="#fff"/>
  </g>
</svg>
