<svg xmlns="http://www.w3.org/2000/svg" width="22" height="18" viewBox="0 0 26.137 24.461">
  <g id="info" transform="translate(0 -5.584)">
    <g id="Group_1059" data-name="Group 1059" transform="translate(0 5.584)">
      <path id="Path_225" data-name="Path 225" d="M74.721,165.518v0h0Z" transform="translate(-63.511 -141.524)" fill="#fff"/>
      <path id="Path_226" data-name="Path 226" d="M20.547,18.867a5.557,5.557,0,0,0-3.056.916,12.341,12.341,0,0,0-3.517-1.53A8.25,8.25,0,0,0,17.4,11.775a6.19,6.19,0,1,0-12.381,0,8.25,8.25,0,0,0,3.425,6.477C3.593,19.482,0,23.693,0,26.813c0,1.844,5.6,2.765,11.208,2.764l-3.14-3.139,2.644-6.391h-.027L9.658,18.87a4.35,4.35,0,0,0,3.1,0l-1.027,1.177h-.025l2.643,6.39L11.21,29.576a42.66,42.66,0,0,0,6.3-.434,5.587,5.587,0,1,0,3.036-10.276Zm0,10.244A4.654,4.654,0,1,1,25.2,24.456,4.66,4.66,0,0,1,20.547,29.11Z" transform="translate(0 -5.584)" fill="#fff"/>
      <path id="Path_227" data-name="Path 227" d="M135.413,108.821a.53.53,0,0,0,.406-.206.669.669,0,0,0,.18-.449.6.6,0,0,0-.136-.4.447.447,0,0,0-.356-.158.522.522,0,0,0-.4.222.711.711,0,0,0-.181.457.561.561,0,0,0,.132.386A.453.453,0,0,0,135.413,108.821Z" transform="translate(-114.683 -92.302)" fill="#fff"/>
      <path id="Path_228" data-name="Path 228" d="M129.18,125.978a.805.805,0,0,1-.438.183c-.122,0-.182-.1-.182-.312,0-.1.009-.234.026-.39l.148-1.694c.064-.661.1-1.016.1-1.058,0-.5-.165-.747-.494-.747a1.31,1.31,0,0,0-.888.431,2.83,2.83,0,0,0-.683,1.044l.252.174q.559-.834.749-.834c.126,0,.188.138.188.416,0,.1-.005.22-.017.346l-.191,1.694q-.07.707-.069,1.007a.872.872,0,0,0,.137.5.528.528,0,0,0,.471.2q1.063,0,1.544-1.285l-.225-.156A1.453,1.453,0,0,1,129.18,125.978Z" transform="translate(-107.748 -104.502)" fill="#fff"/>
    </g>
  </g>
</svg>
