<svg xmlns="http://www.w3.org/2000/svg" width="60" height="60" viewBox="0 0 60 60">
  <g id="Group_1115" data-name="Group 1115" transform="translate(2210 -13255)">
    <rect id="Rectangle_349" data-name="Rectangle 349" width="60" height="60" rx="16" transform="translate(-2210 13255)" fill="#2058f1"/>
    <g id="instagram-sketched" transform="translate(-2192.448 13273)">
      <path id="Path_263" data-name="Path 263" d="M24.383,7.056a8.77,8.77,0,0,0-.558-2.912A6.148,6.148,0,0,0,20.313.633,8.792,8.792,0,0,0,17.4.075C16.117.014,15.709,0,12.451,0S8.785.014,7.5.07A8.772,8.772,0,0,0,4.593.628,5.856,5.856,0,0,0,2.465,2.016,5.909,5.909,0,0,0,1.081,4.14,8.793,8.793,0,0,0,.524,7.051C.463,8.336.449,8.744.449,12s.014,3.666.07,4.946a8.769,8.769,0,0,0,.558,2.912,6.147,6.147,0,0,0,3.512,3.512A8.793,8.793,0,0,0,7.5,23.93c1.28.056,1.688.07,4.946.07s3.666-.014,4.946-.07a8.768,8.768,0,0,0,2.911-.558,6.139,6.139,0,0,0,3.512-3.512,8.8,8.8,0,0,0,.558-2.912c.056-1.28.07-1.688.07-4.946s0-3.666-.061-4.946Zm-2.161,9.8a6.578,6.578,0,0,1-.413,2.227,3.981,3.981,0,0,1-2.279,2.279,6.6,6.6,0,0,1-2.227.412c-1.266.056-1.646.07-4.848.07s-3.587-.014-4.848-.07a6.575,6.575,0,0,1-2.227-.412A3.693,3.693,0,0,1,4,20.465a3.731,3.731,0,0,1-.9-1.378,6.6,6.6,0,0,1-.412-2.227c-.056-1.266-.07-1.646-.07-4.848s.014-3.587.07-4.848a6.575,6.575,0,0,1,.412-2.227,3.648,3.648,0,0,1,.9-1.379,3.726,3.726,0,0,1,1.378-.9,6.606,6.606,0,0,1,2.227-.413c1.266-.056,1.646-.07,4.848-.07s3.587.014,4.848.07a6.578,6.578,0,0,1,2.227.413,3.69,3.69,0,0,1,1.378.9,3.731,3.731,0,0,1,.9,1.379,6.605,6.605,0,0,1,.413,2.227c.056,1.266.07,1.646.07,4.848s-.014,3.577-.07,4.843Zm0,0" transform="translate(0 0)" fill="#fff"/>
      <path id="Path_264" data-name="Path 264" d="M131.114,124.5a6.165,6.165,0,1,0,6.165,6.165A6.167,6.167,0,0,0,131.114,124.5Zm0,10.165a4,4,0,1,1,4-4A4,4,0,0,1,131.114,134.665Zm0,0" transform="translate(-118.663 -118.663)" fill="#fff"/>
      <path id="Path_265" data-name="Path 265" d="M365.328,90.041a1.439,1.439,0,1,1-1.44-1.439A1.439,1.439,0,0,1,365.328,90.041Zm0,0" transform="translate(-345.029 -84.448)" fill="#fff"/>
    </g>
  </g>
</svg>
