<svg xmlns="http://www.w3.org/2000/svg" width="18" height="24" viewBox="0 0 24.923 24">
  <g id="jail" transform="translate(0 -8)">
    <g id="Group_1072" data-name="Group 1072" transform="translate(0 12.615)">
      <g id="Group_1071" data-name="Group 1071" transform="translate(0 0)">
        <path id="Path_238" data-name="Path 238" d="M10.154,88H4.615a1.846,1.846,0,0,0-1.846,1.846v2.548a7.379,7.379,0,0,0,7.98,12.327,8.223,8.223,0,0,1-1.181-2.527,4.557,4.557,0,0,1-2.184.575,4.607,4.607,0,0,1-.2-9.211l.016-.02h3.488l.008-.008A1.381,1.381,0,0,0,12,92.154V89.846A1.846,1.846,0,0,0,10.154,88ZM7.385,103.692a.462.462,0,1,1-.462.462A.462.462,0,0,1,7.385,103.692Zm0-12a.923.923,0,1,1,.923-.923A.923.923,0,0,1,7.385,91.692Z" transform="translate(0 -88)" fill="#fff"/>
      </g>
    </g>
    <g id="Group_1074" data-name="Group 1074" transform="translate(5.534 8)">
      <g id="Group_1073" data-name="Group 1073" transform="translate(0 0)">
        <path id="Path_239" data-name="Path 239" d="M107.93,10.058h-1.846l-.022,0a1.754,1.754,0,0,0,.022-.214A1.852,1.852,0,0,0,104.238,8h-1.846a1.835,1.835,0,0,0-1.387.643A1.836,1.836,0,0,0,99.618,8H97.772a1.846,1.846,0,0,0,0,3.692h1.846a1.836,1.836,0,0,0,1.387-.643,1.835,1.835,0,0,0,1.387.643h1.846l.022,0a1.8,1.8,0,0,0-.022.214,1.852,1.852,0,0,0,1.846,1.846h1.846a1.846,1.846,0,0,0,0-3.692Zm-8.312.712H97.772a.923.923,0,1,1,0-1.846h1.846a.923.923,0,0,1,0,1.846Zm4.62,0h-1.846a.923.923,0,1,1,0-1.846h1.846a.923.923,0,1,1,0,1.846Zm3.692,2.058h-1.846a.923.923,0,0,1,0-1.846h1.846a.923.923,0,1,1,0,1.846Z" transform="translate(-95.926 -8)" fill="#fff"/>
      </g>
    </g>
    <g id="Group_1076" data-name="Group 1076" transform="translate(10.154 14.462)">
      <g id="Group_1075" data-name="Group 1075">
        <path id="Path_240" data-name="Path 240" d="M188.731,125.07a2.31,2.31,0,0,1-2.116,1.392h-.49a4.61,4.61,0,1,1-2.941-.9l.016-.02h3.488l.008-.008a1.381,1.381,0,0,0,1.3-1.376v-2.308A1.846,1.846,0,0,0,186.154,120h-5.538a1.846,1.846,0,0,0-1.846,1.846v2.548a7.387,7.387,0,1,0,9.962.675Zm-5.347-3.224a.923.923,0,1,1-.923.923A.923.923,0,0,1,183.385,121.846Zm0,14.769a.462.462,0,1,1,.462-.462A.462.462,0,0,1,183.385,136.615Z" transform="translate(-176 -120)" fill="#fff"/>
      </g>
    </g>
  </g>
</svg>
