<svg xmlns="http://www.w3.org/2000/svg" width="18" height="24.092" viewBox="0 0 24.088 24.092">
  <g id="link" transform="translate(-0.039 0)">
    <g id="Group_1078" data-name="Group 1078" transform="translate(0.039 7.745)">
      <g id="Group_1077" data-name="Group 1077" transform="translate(0)">
        <path id="Path_241" data-name="Path 241" d="M14.737,166.26a5.466,5.466,0,0,0-.943-.759,5.621,5.621,0,0,0-7.005.759L1.681,171.37a5.621,5.621,0,0,0,7.945,7.953l4.215-4.215a.4.4,0,0,0-.285-.686H13.4a6.757,6.757,0,0,1-2.569-.5.4.4,0,0,0-.438.088l-3.031,3.035a2.41,2.41,0,0,1-3.408-3.408l5.127-5.123a2.409,2.409,0,0,1,3.4,0,1.646,1.646,0,0,0,2.256,0,1.59,1.59,0,0,0,0-2.256Z" transform="translate(-0.039 -164.614)" fill="#fff"/>
      </g>
    </g>
    <g id="Group_1080" data-name="Group 1080" transform="translate(8.952 0)">
      <g id="Group_1079" data-name="Group 1079" transform="translate(0 0)">
        <path id="Path_242" data-name="Path 242" d="M203.03,1.647a5.621,5.621,0,0,0-7.949,0L190.87,5.854a.4.4,0,0,0,.293.686h.149a6.744,6.744,0,0,1,2.565.5.4.4,0,0,0,.438-.088l3.023-3.019a2.41,2.41,0,0,1,3.408,3.408L196.98,11.1l-.032.036-1.317,1.309a2.409,2.409,0,0,1-3.4,0,1.646,1.646,0,0,0-2.256,0,1.6,1.6,0,0,0,0,2.264,5.572,5.572,0,0,0,1.606,1.124c.084.04.169.072.253.108s.173.064.257.1.173.06.257.084l.237.064c.161.04.321.072.486.1a5.589,5.589,0,0,0,.6.056h.305l.241-.028c.088,0,.181-.024.285-.024h.136l.277-.04.128-.024.233-.048h.044a5.62,5.62,0,0,0,2.605-1.477L203.03,9.6A5.621,5.621,0,0,0,203.03,1.647Z" transform="translate(-189.502 0)" fill="#fff"/>
      </g>
    </g>
  </g>
</svg>
