<svg xmlns="http://www.w3.org/2000/svg" width="17.88" height="24" viewBox="0 0 17.88 24">
  <g id="lock" transform="translate(-64)">
    <g id="Group_268" data-name="Group 268" transform="translate(64)">
      <path id="Path_140" data-name="Path 140" d="M81.383,9h-1.49V7A6.953,6.953,0,1,0,65.987,7V9H64.5a.5.5,0,0,0-.5.5V22a2,2,0,0,0,1.987,2H79.893a2,2,0,0,0,1.987-2V9.5A.5.5,0,0,0,81.383,9ZM74.427,19.445a.5.5,0,0,1-.124.389.5.5,0,0,1-.37.166H71.947a.5.5,0,0,1-.37-.166.5.5,0,0,1-.124-.389l.313-2.836a1.987,1.987,0,1,1,2.348,0ZM76.913,9H68.967V7a3.973,3.973,0,1,1,7.947,0Z" transform="translate(-64)" fill="rgba(255,255,255,0.25)"/>
    </g>
  </g>
</svg>
