<svg xmlns="http://www.w3.org/2000/svg" width="23.999" height="24" viewBox="0 0 23.999 24">
  <g id="logout" transform="translate(-0.014)">
    <g id="Group_9" data-name="Group 9" transform="translate(0.014)">
      <g id="Group_8" data-name="Group 8">
        <path id="Path_4" data-name="Path 4" d="M308.878,153.057a1.039,1.039,0,0,0-.223-.335l-3.082-3.082a1.028,1.028,0,1,0-1.453,1.453l1.329,1.329h-5.741a1.028,1.028,0,0,0,0,2.055h5.741l-1.329,1.329a1.028,1.028,0,1,0,1.453,1.453l3.082-3.082a1.017,1.017,0,0,0,.223-.335A1.028,1.028,0,0,0,308.878,153.057Z" transform="translate(-284.957 -142.436)" fill="#fff"/>
        <path id="Path_5" data-name="Path 5" d="M16.857,14a1,1,0,0,0-.991,1v5H11.9V4a1,1,0,0,0-.706-.958L7.756,2h8.11V7a.991.991,0,1,0,1.981,0V1a1,1,0,0,0-.991-1H1A.876.876,0,0,0,.9.019a.972.972,0,0,0-.42.148C.461.181.434.182.413.2S.4.215.394.221A.989.989,0,0,0,.131.537.822.822,0,0,0,.1.621.955.955,0,0,0,.025.855a.628.628,0,0,0,0,.087C.027.962.014.98.014,1V21a1,1,0,0,0,.8.98l9.908,2a.914.914,0,0,0,.194.02.984.984,0,0,0,.628-.227A1,1,0,0,0,11.9,23V22h4.954a1,1,0,0,0,.991-1V15A1,1,0,0,0,16.857,14Z" transform="translate(-0.014)" fill="#fff"/>
      </g>
    </g>
  </g>
</svg>
