<svg xmlns="http://www.w3.org/2000/svg" width="34.072" height="34.2" viewBox="0 0 34.072 34.2">
  <g id="loupe" transform="translate(-0.96)">
    <g id="Group_494" data-name="Group 494" transform="translate(0.96)">
      <g id="Group_493" data-name="Group 493" transform="translate(0)">
        <path id="Path_172" data-name="Path 172" d="M33.881,26.951l-5.629-5.629A15.529,15.529,0,0,0,29.958,14.5,14.5,14.5,0,1,0,15.459,29a15.529,15.529,0,0,0,6.823-1.706l5.629,5.629a4.122,4.122,0,0,0,5.97,0A4.445,4.445,0,0,0,33.881,26.951ZM15.459,25.586A11.087,11.087,0,1,1,26.546,14.5,11.065,11.065,0,0,1,15.459,25.586Z" transform="translate(-0.96)" fill="#fff"/>
      </g>
    </g>
    <g id="Group_496" data-name="Group 496" transform="translate(12.9 8.529)">
      <g id="Group_495" data-name="Group 495">
        <circle id="Ellipse_36" data-name="Ellipse 36" cx="2.559" cy="2.559" r="2.559" fill="#fff"/>
      </g>
    </g>
    <g id="Group_498" data-name="Group 498" transform="translate(9.489 15.181)">
      <g id="Group_497" data-name="Group 497">
        <path id="Path_173" data-name="Path 173" d="M134.93,227.84c-2.9,0-5.288,2.388-5.97,5.288H140.9A6.327,6.327,0,0,0,134.93,227.84Z" transform="translate(-128.96 -227.84)" fill="#fff"/>
      </g>
    </g>
  </g>
</svg>
