<svg xmlns="http://www.w3.org/2000/svg" width="31.128" height="24" viewBox="0 0 31.128 24">
  <g id="mail" transform="translate(0 -64)">
    <g id="Group_267" data-name="Group 267" transform="translate(0 64)">
      <g id="Group_266" data-name="Group 266">
        <path id="Path_138" data-name="Path 138" d="M7.143,65.951C11.412,69.677,18.9,76.233,21.1,78.277a1.274,1.274,0,0,0,1.881,0c2.2-2.046,9.694-8.6,13.962-12.328a.682.682,0,0,0,.091-.922A2.547,2.547,0,0,0,35,64H9.086a2.546,2.546,0,0,0-2.034,1.029A.682.682,0,0,0,7.143,65.951Z" transform="translate(-6.481 -64)" fill="rgba(255,255,255,0.25)"/>
        <path id="Path_139" data-name="Path 139" d="M30.752,126.474a.632.632,0,0,0-.692.1c-4.738,4.127-10.785,9.418-12.687,11.18a2.575,2.575,0,0,1-3.62,0c-2.028-1.878-8.818-7.81-12.686-11.178a.635.635,0,0,0-.692-.1.668.668,0,0,0-.376.6v16.76A2.633,2.633,0,0,0,2.594,146.5h25.94a2.633,2.633,0,0,0,2.594-2.666v-16.76A.667.667,0,0,0,30.752,126.474Z" transform="translate(0 -122.504)" fill="rgba(255,255,255,0.25)"/>
      </g>
    </g>
  </g>
</svg>
