<svg id="menu_1_" data-name="menu (1)" xmlns="http://www.w3.org/2000/svg" width="24" height="17.333" viewBox="0 0 24 17.333">
  <path id="Path_10" data-name="Path 10" d="M23,125.514H1c-.552,0-1-.638-1-1.423s.448-1.423,1-1.423H23c.552,0,1,.638,1,1.423S23.552,125.514,23,125.514Zm0,0" transform="translate(0 -115.424)" fill="#2058f1"/>
  <path id="Path_11" data-name="Path 11" d="M23,2.846H1c-.552,0-1-.638-1-1.423S.448,0,1,0H23c.552,0,1,.638,1,1.423S23.552,2.846,23,2.846Zm0,0" fill="#2058f1"/>
  <path id="Path_12" data-name="Path 12" d="M23,248.178H1c-.552,0-1-.638-1-1.423s.448-1.423,1-1.423H23c.552,0,1,.638,1,1.423S23.552,248.178,23,248.178Zm0,0" transform="translate(0 -230.845)" fill="#2058f1"/>
</svg>
