<svg id="mic" xmlns="http://www.w3.org/2000/svg" width="15.951" height="24" viewBox="0 0 15.951 24">
  <g id="Group_15" data-name="Group 15">
    <path id="Path_8" data-name="Path 8" d="M150.477,16.55a4.009,4.009,0,0,0,3.035-1.35,4.586,4.586,0,0,0,1.262-3.247V4.6a4.585,4.585,0,0,0-1.262-3.247,4.086,4.086,0,0,0-6.07,0A4.586,4.586,0,0,0,146.179,4.6v7.355a4.586,4.586,0,0,0,1.262,3.247A4.009,4.009,0,0,0,150.477,16.55Z" transform="translate(-142.501)" fill="#2a2e52"/>
    <path id="Path_9" data-name="Path 9" d="M88.775,183a.847.847,0,0,0-1.246,0,.9.9,0,0,0-.263.646v1.839a6.317,6.317,0,0,1-1.821,4.547,6.027,6.027,0,0,1-8.765,0,6.316,6.316,0,0,1-1.821-4.547v-1.839A.9.9,0,0,0,74.6,183a.848.848,0,0,0-1.246,0,.9.9,0,0,0-.263.646v1.839a8.151,8.151,0,0,0,2.042,5.524,7.643,7.643,0,0,0,5.047,2.693v1.9H76.632a.837.837,0,0,0-.623.273.926.926,0,0,0,0,1.293.837.837,0,0,0,.623.273h8.861a.837.837,0,0,0,.623-.273.925.925,0,0,0,0-1.293.836.836,0,0,0-.623-.273H81.949v-1.9A7.644,7.644,0,0,0,87,191.006a8.15,8.15,0,0,0,2.043-5.524v-1.839A.9.9,0,0,0,88.775,183Z" transform="translate(-73.087 -173.435)" fill="#2a2e52"/>
  </g>
</svg>
