<svg id="more_1_" data-name="more (1)" xmlns="http://www.w3.org/2000/svg" width="24" height="6" viewBox="0 0 24 6">
  <path id="Path_24" data-name="Path 24" d="M391.863,194.211a2.969,2.969,0,0,1,0,4.243,3.076,3.076,0,0,1-4.305,0,2.969,2.969,0,0,1,0-4.243,3.076,3.076,0,0,1,4.305,0" transform="translate(-368.754 -193.333)" fill="#fbfaff"/>
  <path id="Path_25" data-name="Path 25" d="M198.531,194.211a2.969,2.969,0,0,1,0,4.243,3.076,3.076,0,0,1-4.305,0,2.969,2.969,0,0,1,0-4.243,3.076,3.076,0,0,1,4.305,0" transform="translate(-184.378 -193.333)" fill="#fbfaff"/>
  <path id="Path_26" data-name="Path 26" d="M5.2,194.211a2.969,2.969,0,0,1,0,4.243,3.076,3.076,0,0,1-4.305,0,2.969,2.969,0,0,1,0-4.243,3.076,3.076,0,0,1,4.305,0" transform="translate(-0.001 -193.333)" fill="#fbfaff"/>
</svg>
