<svg xmlns="http://www.w3.org/2000/svg" width="24" height="24" viewBox="0 0 24 24">
  <g id="news" transform="translate(0)">
    <path id="Path_200" data-name="Path 200" d="M94.27,238.867h1.593v1.593H94.27Zm0,0" transform="translate(-89.848 -227.663)" fill="#2058f1"/>
    <path id="Path_201" data-name="Path 201" d="M0,172.571a2.594,2.594,0,0,0,2.586,2.6H21.414a2.594,2.594,0,0,0,2.586-2.6V158.535H0ZM9.741,160.9H20.285a.706.706,0,0,1,0,1.412H9.741a.706.706,0,0,1,0-1.412Zm0,3.024H20.285a.706.706,0,0,1,0,1.412H9.741a.706.706,0,0,1,0-1.412Zm-6.728-2.318a.7.7,0,0,1,.7-.706H6.728a.7.7,0,0,1,.7.706v3.024a.7.7,0,0,1-.7.706H3.716a.7.7,0,0,1-.7-.706Zm.7,5.342H20.285a.706.706,0,0,1,0,1.412H3.716a.706.706,0,0,1,0-1.412Zm0,3.024H20.285a.706.706,0,0,1,0,1.412H3.716a.706.706,0,0,1,0-1.412Zm0,0" transform="translate(0 -151.167)" fill="#2058f1"/>
    <path id="Path_202" data-name="Path 202" d="M21.414,0H2.586A2.578,2.578,0,0,0,0,2.564v3.41H24V2.564A2.578,2.578,0,0,0,21.414,0ZM17.272,4.381H6.728a.7.7,0,1,1,0-1.394H17.272a.7.7,0,1,1,0,1.394Zm0,0" transform="translate(0)" fill="#2058f1"/>
  </g>
</svg>
