<svg xmlns="http://www.w3.org/2000/svg" width="12" height="18" viewBox="0 0 15.429 24.001">
  <g id="Page-1" transform="translate(0.001 0.001)">
    <g id="_012---Hand-Tattoo" data-name="012---Hand-Tattoo" transform="translate(-0.001 -0.001)">
      <path id="Shape" d="M7.1,32.383l-.771.857a.863.863,0,0,1-.8.265.429.429,0,0,0-.059.857.429.429,0,0,1,.429.429.429.429,0,1,0,.845-.1.881.881,0,0,1,.18-.828l.849-.943a1.714,1.714,0,0,1-.674-.541Z" transform="translate(-3.323 -18.932)" fill="#fff"/>
      <path id="Shape-2" data-name="Shape" d="M15.146,24.392c-.222-.343.14-.471.14-1.249a2.143,2.143,0,0,0-4.286,0c0,.774.36.909.14,1.249a.857.857,0,0,0,.542,1.3.429.429,0,0,1,.333.335l.194.969h.506a.429.429,0,1,1,.857,0h.506l.194-.969A.429.429,0,0,1,14.6,25.7a.857.857,0,0,0,.542-1.3Zm-3.289-1.249a.429.429,0,1,1,.429.429A.429.429,0,0,1,11.857,23.143Zm2.017,2.017a.429.429,0,0,1-.606,0l-.126-.126-.126.126a.429.429,0,0,1-.606-.606l.429-.429a.429.429,0,0,1,.606,0l.429.429a.429.429,0,0,1,0,.606ZM14,23.571a.429.429,0,1,1,.429-.429A.429.429,0,0,1,14,23.571Z" transform="translate(-6.714 -12.428)" fill="#fff"/>
      <path id="Shape-3" data-name="Shape" d="M7.835,17.39,6.9,16.351a.875.875,0,0,1-.186-.814.421.421,0,0,0-.311-.529.429.429,0,0,0-.531.418.429.429,0,0,1-.429.429.429.429,0,1,0,.078.852.854.854,0,0,1,.782.269l.946,1.05a3,3,0,0,1,.583-.636Z" transform="translate(-3.303 -8.997)" fill="#fff"/>
      <path id="Shape-4" data-name="Shape" d="M13.286,52H3.429A.429.429,0,0,0,3,52.429v1.714H13.715V52.429A.429.429,0,0,0,13.286,52Z" transform="translate(-2.143 -30.142)" fill="#fff"/>
      <path id="Shape-5" data-name="Shape" d="M14.714,6.142V8.714a.429.429,0,1,1-.857,0v-5.5a1.286,1.286,0,1,0-2.571-.074.429.429,0,1,1-.857,0V2.285a1.286,1.286,0,0,0-1.414-1.28A1.337,1.337,0,0,0,7.857,2.359V3.571a.429.429,0,0,1-.857,0,1.286,1.286,0,0,0-1.414-1.28A1.337,1.337,0,0,0,4.428,3.645v.783a.429.429,0,0,1-.857,0,1.286,1.286,0,0,0-1.414-1.28A1.337,1.337,0,0,0,1,4.5V18.29a1.294,1.294,0,0,0,.376.909C2.517,20.34,2.714,20.378,2.714,22h9v-.9a2.134,2.134,0,0,1,.786-1.659l1.414-1.157a6.833,6.833,0,0,0,2.514-5.308V7.857a1.714,1.714,0,0,0-1.714-1.714ZM10.263,12.7a1.625,1.625,0,0,1,.157.844l1.071,1.2a1.286,1.286,0,0,1,.595,2.493A1.289,1.289,0,0,1,9.6,17.156a1.309,1.309,0,0,1,.015-.641l-.5-.557a.857.857,0,0,1-.758.47H6.494a.857.857,0,0,1-.763-.474l-.5.551a1.286,1.286,0,0,1-2.467.724,1.286,1.286,0,0,1,.109-2.489,1.551,1.551,0,0,1,.5-.011l1.062-1.188a1.629,1.629,0,0,1,.157-.844,2.98,2.98,0,0,1-.043-1.828L3.363,9.549a1.286,1.286,0,0,1-.6-2.493,1.286,1.286,0,0,1,2.469.714L6.281,8.942a2.989,2.989,0,0,1,2.293,0L9.62,7.78a1.286,1.286,0,0,1,2.467-.725,1.286,1.286,0,0,1-.561,2.5c-.063,0,.086-.148-1.221,1.309a2.982,2.982,0,0,1-.041,1.829Z" transform="translate(-0.999 -0.999)" fill="#fff"/>
      <path id="Shape-6" data-name="Shape" d="M20.627,32.924l.847.943a.875.875,0,0,1,.186.814.421.421,0,0,0,.311.529.429.429,0,0,0,.53-.419.429.429,0,0,1,.429-.429.429.429,0,1,0-.078-.852.852.852,0,0,1-.782-.269l-.771-.857a1.714,1.714,0,0,1-.671.54Z" transform="translate(-12.215 -18.933)" fill="#fff"/>
      <path id="Shape-7" data-name="Shape" d="M23.157,16.027a.429.429,0,0,0-.343-.171.429.429,0,0,1-.429-.429.429.429,0,0,0-.528-.418.424.424,0,0,0-.318.514.881.881,0,0,1-.18.828l-.935,1.04a3,3,0,0,1,.583.636l.949-1.053a.861.861,0,0,1,.8-.264.429.429,0,0,0,.4-.683Z" transform="translate(-12.099 -8.998)" fill="#fff"/>
    </g>
  </g>
</svg>
