<svg id="photo" xmlns="http://www.w3.org/2000/svg" width="27.428" height="24.001" viewBox="0 0 27.428 24.001">
  <path id="Path_6" data-name="Path 6" d="M189.687,199.553a3.822,3.822,0,1,1-5.406,0,3.822,3.822,0,0,1,5.406,0" transform="translate(-173.271 -189.438)" fill="#2a2e52"/>
  <path id="Path_7" data-name="Path 7" d="M24,33.951H21.631l-1.715-3.429H7.511L5.8,33.952l-2.366,0A3.435,3.435,0,0,0,.009,37.384L0,51.093a3.433,3.433,0,0,0,3.429,3.43H24a3.432,3.432,0,0,0,3.429-3.429V37.379A3.432,3.432,0,0,0,24,33.951ZM13.714,50.237a6.857,6.857,0,1,1,6.857-6.857,6.865,6.865,0,0,1-6.857,6.857Z" transform="translate(0 -30.522)" fill="#2a2e52"/>
</svg>
