<svg xmlns="http://www.w3.org/2000/svg" width="18" height="24" viewBox="0 0 24.276 24">
  <g id="relationship" transform="translate(0 -2.961)">
    <g id="Group_1060" data-name="Group 1060" transform="translate(0 2.961)">
      <circle id="Ellipse_59" data-name="Ellipse 59" cx="2.688" cy="2.688" r="2.688" transform="translate(1.894 0)" fill="#fff"/>
      <path id="Path_229" data-name="Path 229" d="M367.016,2.961a2.688,2.688,0,1,1-2.688,2.688A2.688,2.688,0,0,1,367.016,2.961Z" transform="translate(-347.322 -2.961)" fill="#fff"/>
      <path id="Path_230" data-name="Path 230" d="M21.712,112.109a2.946,2.946,0,0,1-4.034,0,3.453,3.453,0,0,0-2.408,2.307,17.561,17.561,0,0,0-6.263,0A3.453,3.453,0,0,0,6.6,112.109a2.947,2.947,0,0,1-4.034,0A3.445,3.445,0,0,0,0,115.433v2.79l.007.043.192.06a17.482,17.482,0,0,0,1.717.442,3.984,3.984,0,0,0-.389,1.694c0,2.533,2.51,4.722,6.124,5.732a3.411,3.411,0,0,0-.207,1.172v2.79l.007.044.192.06a15.674,15.674,0,0,0,4.68.755,9.609,9.609,0,0,0,4.086-.767l.18-.091h.019v-2.79a3.414,3.414,0,0,0-.187-1.117c3.723-.984,6.328-3.207,6.328-5.787a3.963,3.963,0,0,0-.353-1.617,7.208,7.208,0,0,0,1.681-.531l.18-.091h.019v-2.79A3.444,3.444,0,0,0,21.712,112.109Zm.3,8.353c0,2.286-2.434,4.255-5.91,5.122a3.455,3.455,0,0,0-2.062-1.542,2.948,2.948,0,0,1-4.035,0,3.457,3.457,0,0,0-2.032,1.492c-3.373-.891-5.717-2.829-5.717-5.072a3.39,3.39,0,0,1,.393-1.559,14.488,14.488,0,0,0,2.225.178,9.611,9.611,0,0,0,4.086-.767l.18-.091h.019v-2.79c0-.1,0-.2-.014-.3a17.144,17.144,0,0,1,5.976,0c-.009.1-.014.2-.014.3v2.79l.007.043.193.06a15.678,15.678,0,0,0,4.679.754,12.3,12.3,0,0,0,1.666-.11A3.372,3.372,0,0,1,22.016,120.462Z" transform="translate(0 -107.014)" fill="#fff"/>
      <circle id="Ellipse_60" data-name="Ellipse 60" cx="2.688" cy="2.688" r="2.688" transform="translate(9.338 11.933)" fill="#fff"/>
    </g>
  </g>
</svg>
