<svg xmlns="http://www.w3.org/2000/svg" width="24" height="24" viewBox="0 0 24 24">
  <g id="report" transform="translate(0 0)">
    <path id="Path_170" data-name="Path 170" d="M33.109,11.25a2.1,2.1,0,0,0,1.46-.593L36.651,11.7a2.066,2.066,0,0,0-.026.256,2.109,2.109,0,0,0,4.219,0,2.084,2.084,0,0,0-.211-.9l2.823-2.823a2.084,2.084,0,0,0,.9.211,2.112,2.112,0,0,0,2.109-2.109,2.078,2.078,0,0,0-.105-.625l2.453-1.839a2.108,2.108,0,1,0-.942-1.755,2.078,2.078,0,0,0,.105.625L45.527,4.574a2.1,2.1,0,0,0-3.066,2.658l-2.823,2.823a2.073,2.073,0,0,0-2.364.382L35.193,9.4a2.066,2.066,0,0,0,.026-.256,2.109,2.109,0,1,0-2.109,2.109Zm0,0" transform="translate(-29.547)" fill="#fff"/>
    <path id="Path_171" data-name="Path 171" d="M23.3,165.563h-.75V150.7a.7.7,0,0,0-.7-.7H19.031a.7.7,0,0,0-.7.7v14.859H16.922V154.922a.7.7,0,0,0-.7-.7H13.406a.7.7,0,0,0-.7.7v10.641H11.3v-5.016a.7.7,0,0,0-.7-.7H7.781a.7.7,0,0,0-.7.7v5.016H5.672v-7.828a.7.7,0,0,0-.7-.7H2.156a.7.7,0,0,0-.7.7v7.828H.7a.7.7,0,1,0,0,1.406H23.3a.7.7,0,1,0,0-1.406Zm0,0" transform="translate(0 -142.969)" fill="#fff"/>
  </g>
</svg>
