<svg xmlns="http://www.w3.org/2000/svg" width="17" height="24" viewBox="0 0 23.999 24">
  <g id="search" transform="translate(-0.011)">
    <g id="Group_1064" data-name="Group 1064" transform="translate(12.057 8.438)">
      <g id="Group_1063" data-name="Group 1063">
        <path id="Path_234" data-name="Path 234" d="M261.911,180H259.1a2.112,2.112,0,0,0-2.109,2.109v.7h7.031v-.7A2.112,2.112,0,0,0,261.911,180Z" transform="translate(-256.989 -180)" fill="#fff"/>
      </g>
    </g>
    <g id="Group_1066" data-name="Group 1066" transform="translate(14.166 4.219)">
      <g id="Group_1065" data-name="Group 1065">
        <path id="Path_235" data-name="Path 235" d="M303.4,90a1.406,1.406,0,1,0,1.406,1.406A1.408,1.408,0,0,0,303.4,90Z" transform="translate(-301.989 -90)" fill="#fff"/>
      </g>
    </g>
    <g id="Group_1068" data-name="Group 1068" transform="translate(7.135)">
      <g id="Group_1067" data-name="Group 1067">
        <path id="Path_236" data-name="Path 236" d="M160.427,0a8.438,8.438,0,1,0,8.438,8.438A8.447,8.447,0,0,0,160.427,0Zm4.922,11.953a.7.7,0,0,1-.7.7h-8.437a.7.7,0,0,1-.7-.7V10.547a3.511,3.511,0,0,1,2.578-3.373,2.813,2.813,0,1,1,4.687,0,3.51,3.51,0,0,1,2.578,3.373Z" transform="translate(-151.989)" fill="#fff"/>
      </g>
    </g>
    <g id="Group_1070" data-name="Group 1070" transform="translate(0.011 13.737)">
      <g id="Group_1069" data-name="Group 1069">
        <path id="Path_237" data-name="Path 237" d="M7.29,293.055.628,299.717A2.109,2.109,0,1,0,3.611,302.7l6.662-6.662A9.907,9.907,0,0,1,7.29,293.055Z" transform="translate(-0.011 -293.055)" fill="#fff"/>
      </g>
    </g>
  </g>
</svg>
