<svg xmlns="http://www.w3.org/2000/svg" width="21" height="21" viewBox="0 0 21 21">
  <g id="search" transform="translate(0.5 0.5)">
    <g id="Group_96" data-name="Group 96">
      <g id="Group_95" data-name="Group 95">
        <path id="Path_32" data-name="Path 32" d="M8.818,0a8.818,8.818,0,1,0,8.818,8.818A8.829,8.829,0,0,0,8.818,0Zm0,16.009a7.19,7.19,0,1,1,7.19-7.19A7.2,7.2,0,0,1,8.818,16.009Z" fill="#fff" stroke="#fff" stroke-width="1"/>
      </g>
    </g>
    <g id="Group_98" data-name="Group 98" transform="translate(13.77 13.77)">
      <g id="Group_97" data-name="Group 97">
        <path id="Path_33" data-name="Path 33" d="M357.039,355.9l-4.619-4.619a.805.805,0,0,0-1.139,1.139l4.619,4.619a.805.805,0,0,0,1.139-1.139Z" transform="translate(-351.046 -351.046)" fill="#fff" stroke="#fff" stroke-width="1"/>
      </g>
    </g>
  </g>
</svg>
