<svg xmlns="http://www.w3.org/2000/svg" width="22" height="24.012" viewBox="0 0 30.058 24.012">
  <g id="security" transform="translate(0 -51.494)">
    <path id="Path_243" data-name="Path 243" d="M43.744,260.113a48.8,48.8,0,0,0,13.238-1.777v-2.183a52.31,52.31,0,0,1-26.476,0v2.183A48.8,48.8,0,0,0,43.744,260.113Z" transform="translate(-28.715 -192.644)" fill="#fff"/>
    <path id="Path_244" data-name="Path 244" d="M26.719,54.652a19.209,19.209,0,0,0-4.738-2.169,23.766,23.766,0,0,0-6.952-.989,23.766,23.766,0,0,0-6.952.989,19.209,19.209,0,0,0-4.738,2.169A15.422,15.422,0,0,0,0,57.469l1.584,4.143a46.526,46.526,0,0,0,9.849,1.711,4.347,4.347,0,0,1-.678-3.376l.982-4.679h6.584l.982,4.679a4.347,4.347,0,0,1-.678,3.376,46.526,46.526,0,0,0,9.849-1.711l1.584-4.143A15.424,15.424,0,0,0,26.719,54.652Z" transform="translate(0 0)" fill="#fff"/>
    <path id="Path_245" data-name="Path 245" d="M44.653,326.556a50.709,50.709,0,0,1-13.181-1.687,7.378,7.378,0,0,0,3.652,5.99c2.176,1.309,5.383,1.973,9.529,1.973s7.353-.664,9.529-1.973a7.378,7.378,0,0,0,3.652-5.99A50.707,50.707,0,0,1,44.653,326.556Z" transform="translate(-29.624 -257.326)" fill="#fff"/>
    <path id="Path_246" data-name="Path 246" d="M216.225,151.24a2.6,2.6,0,0,0,.527-2.178l-.689-3.279H212.34l-.689,3.279a2.606,2.606,0,0,0,4.574,2.178Z" transform="translate(-199.173 -88.753)" fill="#fff"/>
  </g>
</svg>
