<svg xmlns="http://www.w3.org/2000/svg" width="16" height="23.999" viewBox="0 0 20.087 23.999">
  <g id="shield" transform="translate(0.001 -0.001)">
    <path id="Path_258" data-name="Path 258" d="M144.356,181.571l-1.084-1.732-1.084,1.732a.7.7,0,0,1-.426.309l-1.982.5,1.312,1.566a.7.7,0,0,1,.162.5l-.141,2.038,1.895-.764a.7.7,0,0,1,.526,0l1.895.764-.141-2.038a.7.7,0,0,1,.162-.5l1.312-1.566-1.982-.5A.7.7,0,0,1,144.356,181.571Zm0,0" transform="translate(-133.23 -171.409)" fill="#fff"/>
    <path id="Path_259" data-name="Path 259" d="M19.83,13.952,18.361,8.809a4.647,4.647,0,0,1,1.182-4.562l.034-.034a.7.7,0,0,0,0-.994L16.564.207A.7.7,0,0,0,15.6.179l-.03.028a3.532,3.532,0,0,1-2.515,1.041A3.532,3.532,0,0,1,10.54.207.7.7,0,0,0,9.574.179l-.03.028A3.532,3.532,0,0,1,7.03,1.249,3.532,3.532,0,0,1,4.515.207a.7.7,0,0,0-.995,0L.507,3.219a.7.7,0,0,0,.008,1l.026.026A4.649,4.649,0,0,1,1.723,8.809L.254,13.952A6.7,6.7,0,0,0,6.7,22.494a2.874,2.874,0,0,1,1.6.484l1.356.9a.7.7,0,0,0,.78,0l1.356-.9a2.873,2.873,0,0,1,1.6-.484,6.7,6.7,0,0,0,6.443-8.542Zm-4.5-2.944-1.851,2.21.2,2.876a.7.7,0,0,1-.964.7l-2.674-1.078L7.368,16.795a.7.7,0,0,1-.964-.7l.2-2.876-1.851-2.21A.7.7,0,0,1,5.12,9.875l2.8-.7L9.446,6.732a.7.7,0,0,1,1.192,0l1.529,2.444,2.8.7a.7.7,0,0,1,.368,1.133Zm0,0" transform="translate(0)" fill="#fff"/>
  </g>
</svg>
