<svg xmlns="http://www.w3.org/2000/svg" width="20" height="24.32" viewBox="0 0 24.009 24.32">
  <g id="steal" transform="translate(-0.374 0)">
    <g id="Group_1062" data-name="Group 1062" transform="translate(0.374 0)">
      <path id="Path_231" data-name="Path 231" d="M14.175,23.021a3.032,3.032,0,0,0,.08-.572A9.711,9.711,0,0,0,9.389,13.8c-1.8-1.155-3.5.1-3.933,1.71-1.113-.886-3.042.44-2.174,1.9l.1.16c-.871,0-3.646-.012-2.869,0,.918.016,3.122,2.487,3.122,2.487V17.97a4.11,4.11,0,0,0,2.83,2.15,1.93,1.93,0,0,0,1.471-.433,3.578,3.578,0,0,1,.81,2.137,10.1,10.1,0,0,0-1.329.063c-1.539.181-2.489.52-2.8,2.131-.468,2.429.8,4.2,2.158,6.059,1.108,1.51,3.66.047,2.537-1.485-.918-1.251-1.842-2.279-1.8-3.733a10.919,10.919,0,0,1,2.7-.013,3.076,3.076,0,0,0,1.447.231,16.182,16.182,0,0,0,3.98,6.582c1.32,1.364,3.4-.718,2.078-2.076A13,13,0,0,1,14.175,23.021Z" transform="translate(-0.374 -7.784)" fill="#fff"/>
      <path id="Path_232" data-name="Path 232" d="M5.531,3.316c0,.042.005.083.011.126a2.484,2.484,0,1,0,4.922-.676,2.448,2.448,0,0,0-.248-.786c.084-.04.122-.137.093-.337l-.081-.593A1.213,1.213,0,0,0,8.862.012L6.217.375A1.213,1.213,0,0,0,5.18,1.742l.065.48c-.371.3-.684.669-.616,1.065C4.688,3.639,5.078,3.552,5.531,3.316Z" transform="translate(-2.849 0)" fill="#fff"/>
      <path id="Path_233" data-name="Path 233" d="M22.894,11.377s5.955,3.193,5.251,7.9C26.6,23.2,33.337,27.239,37,18.191,37,18.191,41.66,5.79,22.894,11.377Zm10.082,7.384v.756h-.8v-.712a2.128,2.128,0,0,1-.983-.328l-.113-.081.292-.817.2.131a1.656,1.656,0,0,0,.9.268c.385,0,.642-.2.642-.5,0-.2-.08-.417-.669-.656-.622-.244-1.26-.6-1.26-1.371a1.293,1.293,0,0,1,1.048-1.266v-.735h.8v.685a1.964,1.964,0,0,1,.811.256l.134.079-.3.8-.188-.107a1.494,1.494,0,0,0-.782-.212c-.407,0-.551.214-.551.413,0,.216.108.357.747.622a1.565,1.565,0,0,1,1.19,1.439A1.373,1.373,0,0,1,32.976,18.761Z" transform="translate(-13.503 -5.79)" fill="#fff"/>
    </g>
  </g>
</svg>
