<svg xmlns="http://www.w3.org/2000/svg" width="60" height="60" viewBox="0 0 60 60">
  <g id="Group_1116" data-name="Group 1116" transform="translate(2140 -13255)">
    <rect id="Rectangle_125" data-name="Rectangle 125" width="60" height="60" rx="16" transform="translate(-2140 13255)" fill="#2058f1"/>
    <g id="twitter" transform="translate(-2122 13227)">
      <g id="Group_1110" data-name="Group 1110" transform="translate(0 48)">
        <path id="Path_266" data-name="Path 266" d="M24,50.308a10.258,10.258,0,0,1-2.835.777,4.893,4.893,0,0,0,2.165-2.719,9.833,9.833,0,0,1-3.12,1.191A4.92,4.92,0,0,0,11.7,52.921a5.066,5.066,0,0,0,.114,1.122A13.927,13.927,0,0,1,1.671,48.9a4.922,4.922,0,0,0,1.512,6.576A4.859,4.859,0,0,1,.96,54.867v.054A4.943,4.943,0,0,0,4.9,59.755a4.911,4.911,0,0,1-1.29.162,4.35,4.35,0,0,1-.931-.084,4.967,4.967,0,0,0,4.6,3.428,9.886,9.886,0,0,1-6.1,2.1A9.217,9.217,0,0,1,0,65.292,13.852,13.852,0,0,0,7.548,67.5a13.907,13.907,0,0,0,14-14c0-.218-.007-.428-.018-.636A9.815,9.815,0,0,0,24,50.308Z" transform="translate(0 -48)" fill="#fff"/>
      </g>
    </g>
  </g>
</svg>
