<svg id="user_2_" data-name="user (2)" xmlns="http://www.w3.org/2000/svg" width="24" height="24" viewBox="0 0 24 24">
  <g id="Group_505" data-name="Group 505" transform="translate(0 6)">
    <g id="Group_504" data-name="Group 504">
      <path id="Path_178" data-name="Path 178" d="M14.136,140.521l-3.294-.717v-.974a7.859,7.859,0,0,0,.5-.9,6,6,0,0,1,.39-.707,4.075,4.075,0,0,0,1.283-2.034,1.781,1.781,0,0,0-.175-1.469,10.984,10.984,0,0,0-.21-2.51,2.845,2.845,0,0,0-.672-2.05,2,2,0,0,0-1.217-.519,2.162,2.162,0,0,1-.372-.081A4.442,4.442,0,0,0,8.222,128a4.97,4.97,0,0,0-4.4,3.025,7.084,7.084,0,0,0-.177,2.271v.366a2.082,2.082,0,0,0-.167,1.53,4.064,4.064,0,0,0,1.278,2.031,5.749,5.749,0,0,1,.4.715,8,8,0,0,0,.5.893v.973l-3.294.717A3.011,3.011,0,0,0,0,143.452v1.8a.75.75,0,0,0,.75.75h15a.75.75,0,0,0,.75-.75v-1.8A3.014,3.014,0,0,0,14.136,140.521Z" transform="translate(0 -128)" fill="#fff"/>
    </g>
  </g>
  <g id="Group_507" data-name="Group 507" transform="translate(10.731)">
    <g id="Group_506" data-name="Group 506">
      <path id="Path_179" data-name="Path 179" d="M235.447,0a6.735,6.735,0,0,0-6.519,5.087c.057.027.118.036.174.064l.084.015a3.433,3.433,0,0,1,2.07.981,4.175,4.175,0,0,1,1.064,2.864,11.741,11.741,0,0,1,.216,2.34,3.355,3.355,0,0,1,.22,1.584A6.748,6.748,0,1,0,235.447,0Zm2.031,9.531a.753.753,0,0,1-1.062,0l-2.25-2.25a.755.755,0,0,1-.219-.531v-3a.75.75,0,1,1,1.5,0V6.44l2.031,2.031A.751.751,0,0,1,237.478,9.531Z" transform="translate(-228.928)" fill="#fff"/>
    </g>
  </g>
</svg>
