<svg xmlns="http://www.w3.org/2000/svg" width="20.023" height="24" viewBox="0 0 20.023 24">
  <g id="user" transform="translate(0 0)">
    <path id="Path_136" data-name="Path 136" d="M92.831,11.511a5.632,5.632,0,0,0,4.1-1.686,5.548,5.548,0,0,0,1.7-4.069,5.549,5.549,0,0,0-1.7-4.069,5.829,5.829,0,0,0-8.2,0,5.548,5.548,0,0,0-1.7,4.069,5.548,5.548,0,0,0,1.7,4.07A5.634,5.634,0,0,0,92.831,11.511Zm0,0" transform="translate(-82.97)" fill="rgba(255,255,255,0.25)"/>
    <path id="Path_137" data-name="Path 137" d="M19.974,254.148a14.158,14.158,0,0,0-.194-1.51,11.852,11.852,0,0,0-.373-1.518,7.481,7.481,0,0,0-.627-1.416,5.345,5.345,0,0,0-.945-1.226,4.17,4.17,0,0,0-1.358-.849,4.71,4.71,0,0,0-1.733-.312,1.764,1.764,0,0,0-.94.4c-.282.183-.611.394-.979.628a5.62,5.62,0,0,1-1.266.555,4.938,4.938,0,0,1-3.1,0,5.608,5.608,0,0,1-1.265-.555c-.364-.232-.694-.443-.98-.629a1.761,1.761,0,0,0-.939-.4,4.7,4.7,0,0,0-1.733.313,4.167,4.167,0,0,0-1.358.849,5.347,5.347,0,0,0-.945,1.226,7.5,7.5,0,0,0-.627,1.416,11.881,11.881,0,0,0-.373,1.518,14.107,14.107,0,0,0-.194,1.51c-.032.457-.048.932-.048,1.411a3.959,3.959,0,0,0,1.184,3,4.271,4.271,0,0,0,3.05,1.108H15.789a4.271,4.271,0,0,0,3.05-1.108,3.957,3.957,0,0,0,1.184-3c0-.481-.016-.956-.049-1.411Zm0,0" transform="translate(0 -235.669)" fill="rgba(255,255,255,0.25)"/>
  </g>
</svg>
