<svg xmlns="http://www.w3.org/2000/svg" width="142.189" height="133.992" viewBox="0 0 142.189 133.992">
  <g id="signs" transform="translate(0 -14.759)">
    <g id="Group_1" data-name="Group 1" transform="translate(0 14.759)">
      <path id="Path_11" data-name="Path 11" d="M139.235,117.288,89.007,24.955a20.831,20.831,0,0,0-35.823,0L2.957,117.288a20.819,20.819,0,0,0,17.908,31.462H121.323A20.823,20.823,0,0,0,139.235,117.288Zm-68.14,14.8a8.331,8.331,0,1,1,8.331-8.331A8.342,8.342,0,0,1,71.095,132.088Zm8.331-33.326a8.331,8.331,0,1,1-16.663,0V57.105a8.331,8.331,0,1,1,16.663,0Z" transform="translate(0 -14.759)" fill="#fb0"/>
    </g>
  </g>
</svg>
