<svg xmlns="http://www.w3.org/2000/svg" width="16" height="24" viewBox="0 0 19.784 24">
  <g id="video-file" transform="translate(-44.973)">
    <g id="Group_1086" data-name="Group 1086" transform="translate(59.568)">
      <g id="Group_1085" data-name="Group 1085">
        <path id="Path_252" data-name="Path 252" d="M356.324,0V3.568a1.623,1.623,0,0,0,1.622,1.622h3.568Z" transform="translate(-356.324)" fill="#fff"/>
      </g>
    </g>
    <g id="Group_1088" data-name="Group 1088" transform="translate(44.973)">
      <g id="Group_1087" data-name="Group 1087">
        <path id="Path_253" data-name="Path 253" d="M61.189,6.811a3.253,3.253,0,0,1-3.243-3.243V0H44.973V20.757A3.253,3.253,0,0,0,48.216,24h13.3a3.253,3.253,0,0,0,3.243-3.243V6.811ZM54.865,19.136a5.027,5.027,0,1,1,5.027-5.027A5.027,5.027,0,0,1,54.865,19.136Z" transform="translate(-44.973)" fill="#fff"/>
      </g>
    </g>
    <g id="Group_1090" data-name="Group 1090" transform="translate(53.405 11.027)">
      <g id="Group_1089" data-name="Group 1089">
        <path id="Path_254" data-name="Path 254" d="M224.865,235.243v6.162l4.54-3.081Z" transform="translate(-224.865 -235.243)" fill="#fff"/>
      </g>
    </g>
  </g>
</svg>
